<?xml version="1.0" encoding="iso-8859-1"?>
<!-- Generator: Adobe Illustrator 19.0.0, SVG Export Plug-In . SVG Version: 6.00 Build 0)  -->
<svg version="1.1" id="Layer_1" xmlns="http://www.w3.org/2000/svg" xmlns:xlink="http://www.w3.org/1999/xlink" x="0px" y="0px"
	 viewBox="0 0 512 512" style="enable-background:new 0 0 512 512;" xml:space="preserve">
<g>
	<g>
		<path d="M100.174,83.478c-46.03,0-83.478,37.448-83.478,83.478s37.448,83.478,83.478,83.478h54.06
			c7.376,24.562,12.722,50.036,12.722,77.913h178.087c0-89.963,55.652-154.907,55.652-244.87H100.174z M100.174,217.043
			c-27.618,0-50.087-22.469-50.087-50.087c0-27.618,22.469-50.087,50.087-50.087h13.633c5.214,35.439,17.729,67.596,29.308,100.174
			H100.174z"/>
	</g>
</g>
<g>
	<g>
		<polygon points="0,361.739 0,395.13 55.815,395.13 67.108,428.522 445.357,428.522 456.418,395.13 512,395.13 512,361.739 		"/>
	</g>
</g>
<g>
</g>
<g>
</g>
<g>
</g>
<g>
</g>
<g>
</g>
<g>
</g>
<g>
</g>
<g>
</g>
<g>
</g>
<g>
</g>
<g>
</g>
<g>
</g>
<g>
</g>
<g>
</g>
<g>
</g>
</svg>
